<svg xmlns="http://www.w3.org/2000/svg" xmlns:xlink="http://www.w3.org/1999/xlink" contentStyleType="text/css" height="843px" preserveAspectRatio="none" style="width:1217px;height:843px;background:#FFFFFF;" version="1.1" viewBox="0 0 1217 843" width="1217px" zoomAndPan="magnify"><defs/><g><!--cluster 707f43e26a909972548e040b11b5e177--><g id="cluster_707f43e26a909972548e040b11b5e177"><polygon fill="none" points="16,132.59,26,122.59,665,122.59,665,344.97,655,354.97,16,354.97,16,132.59" style="stroke:#181818;stroke-width:1.0;"/><line style="stroke:#181818;stroke-width:1.0;" x1="655" x2="665" y1="132.59" y2="122.59"/><line style="stroke:#181818;stroke-width:1.0;" x1="16" x2="655" y1="132.59" y2="132.59"/><line style="stroke:#181818;stroke-width:1.0;" x1="655" x2="655" y1="132.59" y2="354.97"/><text fill="#000000" font-family="sans-serif" font-size="14" font-weight="bold" lengthAdjust="spacing" textLength="135" x="269" y="148.5851">Matching-service</text></g><!--cluster 541661622185851c248b41bf0cea7ad0--><g id="cluster_541661622185851c248b41bf0cea7ad0"><polygon fill="none" points="705,157.04,715,147.04,1052,147.04,1052,717.26,1042,727.26,705,727.26,705,157.04" style="stroke:#181818;stroke-width:1.0;"/><line style="stroke:#181818;stroke-width:1.0;" x1="1042" x2="1052" y1="157.04" y2="147.04"/><line style="stroke:#181818;stroke-width:1.0;" x1="705" x2="1042" y1="157.04" y2="157.04"/><line style="stroke:#181818;stroke-width:1.0;" x1="1042" x2="1042" y1="157.04" y2="727.26"/><text fill="#000000" font-family="sans-serif" font-size="14" font-weight="bold" lengthAdjust="spacing" textLength="44" x="852.5" y="173.0351">Kafka</text></g><!--entity c984971d18db7388c6defb9003d9be85--><g id="elem_c984971d18db7388c6defb9003d9be85"><rect fill="#F1F1F1" height="160.375" rx="2.5" ry="2.5" style="stroke:#181818;stroke-width:0.5;" width="582" x="40" y="170.59"/><rect fill="#F1F1F1" height="10" style="stroke:#181818;stroke-width:0.5;" width="15" x="602" y="175.59"/><rect fill="#F1F1F1" height="2" style="stroke:#181818;stroke-width:0.5;" width="4" x="600" y="177.59"/><rect fill="#F1F1F1" height="2" style="stroke:#181818;stroke-width:0.5;" width="4" x="600" y="181.59"/><text fill="#000000" font-family="sans-serif" font-size="14" font-weight="bold" lengthAdjust="spacing" textLength="136" x="55" y="203.5851">matching-service</text><text fill="#000000" font-family="sans-serif" font-size="14" lengthAdjust="spacing" textLength="4" x="55" y="219.882">&#160;</text><text fill="#000000" font-family="sans-serif" font-size="14" lengthAdjust="spacing" textLength="99" x="55" y="236.1789">restart: always</text><text fill="#000000" font-family="sans-serif" font-size="14" lengthAdjust="spacing" textLength="454" x="55" y="252.4757">environment: SPRING_KAFKA_BOOTSTRAP_SERVERS=kafka:9092</text><text fill="#000000" font-family="sans-serif" font-size="14" lengthAdjust="spacing" textLength="448" x="55" y="268.7726">environment: KAFKA_TOPIC_ORDER_ACCEPTED=order.accepted</text><text fill="#000000" font-family="sans-serif" font-size="14" lengthAdjust="spacing" textLength="438" x="55" y="285.0695">environment: KAFKA_TOPIC_ORDER_MATCHED=order.matched</text><text fill="#000000" font-family="sans-serif" font-size="14" lengthAdjust="spacing" textLength="542" x="55" y="301.3664">environment: SPRING_KAFKA_CONSUMER_GROUP_ID=matching-service-group</text><text fill="#000000" font-family="sans-serif" font-size="14" lengthAdjust="spacing" textLength="4" x="55" y="317.6632">&#160;</text></g><!--entity 349a83bb472f89aafc32c286b36aadbc--><g id="elem_349a83bb472f89aafc32c286b36aadbc"><rect fill="#F1F1F1" height="111.4844" rx="2.5" ry="2.5" style="stroke:#181818;stroke-width:0.5;" width="279" x="729.5" y="195.04"/><rect fill="#F1F1F1" height="10" style="stroke:#181818;stroke-width:0.5;" width="15" x="988.5" y="200.04"/><rect fill="#F1F1F1" height="2" style="stroke:#181818;stroke-width:0.5;" width="4" x="986.5" y="202.04"/><rect fill="#F1F1F1" height="2" style="stroke:#181818;stroke-width:0.5;" width="4" x="986.5" y="206.04"/><text fill="#000000" font-family="sans-serif" font-size="14" font-weight="bold" lengthAdjust="spacing" textLength="42" x="744.5" y="228.0351">kafka</text><text fill="#000000" font-family="sans-serif" font-size="14" lengthAdjust="spacing" textLength="4" x="744.5" y="244.332">&#160;</text><text fill="#000000" font-family="sans-serif" font-size="14" lengthAdjust="spacing" textLength="239" x="744.5" y="260.6289">image: confluentinc/cp-kafka:8.1.0</text><text fill="#000000" font-family="sans-serif" font-size="14" lengthAdjust="spacing" textLength="99" x="744.5" y="276.9257">restart: always</text><text fill="#000000" font-family="sans-serif" font-size="14" lengthAdjust="spacing" textLength="4" x="744.5" y="293.2226">&#160;</text></g><!--entity fa12a46f06c0cdbd48a8a941d766dd5e--><g id="elem_fa12a46f06c0cdbd48a8a941d766dd5e"><ellipse cx="893" cy="438.97" fill="#F1F1F1" rx="8" ry="8" style="stroke:#181818;stroke-width:0.5;"/><text fill="#000000" font-family="sans-serif" font-size="14" lengthAdjust="spacing" textLength="36" x="875" y="468.9651">9092</text></g><!--entity 272301bb98fef5b1ae13268342c2f77f--><g id="elem_272301bb98fef5b1ae13268342c2f77f"><ellipse cx="982" cy="438.97" fill="#F1F1F1" rx="8" ry="8" style="stroke:#181818;stroke-width:0.5;"/><text fill="#000000" font-family="sans-serif" font-size="14" lengthAdjust="spacing" textLength="36" x="964" y="468.9651">9093</text></g><!--entity 12846cb794da26bec6b148bfa9a5f4e2--><g id="elem_12846cb794da26bec6b148bfa9a5f4e2"><rect fill="#F1F1F1" height="39.2969" rx="2.5" ry="2.5" style="stroke:#181818;stroke-width:0.5;" width="151" x="754.5" y="663.97"/><polygon fill="#F1F1F1" points="888.5,668.97,888.5,682.97,900.5,682.97,900.5,674.97,894.5,668.97,888.5,668.97" style="stroke:#181818;stroke-width:0.5;"/><line style="stroke:#181818;stroke-width:0.5;" x1="894.5" x2="894.5" y1="668.97" y2="674.97"/><line style="stroke:#181818;stroke-width:0.5;" x1="900.5" x2="894.5" y1="674.97" y2="674.97"/><text fill="#000000" font-family="sans-serif" font-size="14" lengthAdjust="spacing" textLength="121" x="764.5" y="689.9651">/var/lib/kafka/data</text></g><!--entity be9fa1c385ea8803a5ac106fe9e19ebd--><g id="elem_be9fa1c385ea8803a5ac106fe9e19ebd"><polygon fill="#F1F1F1" points="763,16,773,6,937,6,937,58.5938,927,68.5938,763,68.5938,763,16" style="stroke:#181818;stroke-width:0.5;"/><line style="stroke:#181818;stroke-width:0.5;" x1="927" x2="937" y1="16" y2="6"/><line style="stroke:#181818;stroke-width:0.5;" x1="763" x2="927" y1="16" y2="16"/><line style="stroke:#181818;stroke-width:0.5;" x1="927" x2="927" y1="16" y2="68.5938"/><text fill="#000000" font-family="sans-serif" font-size="14" font-weight="bold" lengthAdjust="spacing" textLength="134" x="778" y="38.9951">brokerx-network</text><text fill="#000000" font-family="sans-serif" font-size="14" lengthAdjust="spacing" textLength="74" x="778" y="55.292">&#171;network&#187;</text></g><!--entity 2425775a6ce140bd85a74ac550106d12--><g id="elem_2425775a6ce140bd85a74ac550106d12"><ellipse cx="1103" cy="573.97" fill="#F1F1F1" rx="8" ry="8" style="stroke:#181818;stroke-width:0.5;"/><text fill="#000000" font-family="sans-serif" font-size="14" lengthAdjust="spacing" textLength="36" x="1085" y="603.9651">9092</text></g><!--entity 777efe6cf8e5a13d2920e87273a7009e--><g id="elem_777efe6cf8e5a13d2920e87273a7009e"><ellipse cx="1192" cy="573.97" fill="#F1F1F1" rx="8" ry="8" style="stroke:#181818;stroke-width:0.5;"/><text fill="#000000" font-family="sans-serif" font-size="14" lengthAdjust="spacing" textLength="36" x="1174" y="603.9651">9093</text></g><!--entity d86facd247b2c8bbe4ab96edd4449b10--><g id="elem_d86facd247b2c8bbe4ab96edd4449b10"><rect fill="#F1F1F1" height="39.2969" rx="2.5" ry="2.5" style="stroke:#181818;stroke-width:0.5;" width="103" x="778.5" y="798.26"/><polygon fill="#F1F1F1" points="864.5,803.26,864.5,817.26,876.5,817.26,876.5,809.26,870.5,803.26,864.5,803.26" style="stroke:#181818;stroke-width:0.5;"/><line style="stroke:#181818;stroke-width:0.5;" x1="870.5" x2="870.5" y1="803.26" y2="809.26"/><line style="stroke:#181818;stroke-width:0.5;" x1="876.5" x2="870.5" y1="809.26" y2="809.26"/><text fill="#000000" font-family="sans-serif" font-size="14" lengthAdjust="spacing" textLength="73" x="788.5" y="824.2551">kafka_data</text></g><!--reverse link be9fa1c385ea8803a5ac106fe9e19ebd to 707f43e26a909972548e040b11b5e177--><g id="link_be9fa1c385ea8803a5ac106fe9e19ebd_707f43e26a909972548e040b11b5e177"><path codeLine="30" d="M758.734,71.842 C740.084,81.602 727.08,91.19 713,106.59 C690.31,131.415 676.39,166.49 668.1038,195.7112 C667.068,199.3639 666.1202,202.9251 665.2544,206.3634 C665.2002,206.5783 665.1465,206.7927 665.093,207.0066 " fill="none" id="be9fa1c385ea8803a5ac106fe9e19ebd-backto-707f43e26a909972548e040b11b5e177" style="stroke:#181818;stroke-width:1.0;"/><polygon fill="#181818" points="764.05,69.06,754.2212,69.689,759.62,71.3783,757.9306,76.7771,764.05,69.06" style="stroke:#181818;stroke-width:1.0;"/></g><!--link 349a83bb472f89aafc32c286b36aadbc to fa12a46f06c0cdbd48a8a941d766dd5e--><g id="link_349a83bb472f89aafc32c286b36aadbc_fa12a46f06c0cdbd48a8a941d766dd5e"><path codeLine="31" d="M876.1,306.89 C881.8,351.06 889.27,409.02 891.97,429.97 " fill="none" id="349a83bb472f89aafc32c286b36aadbc-fa12a46f06c0cdbd48a8a941d766dd5e" style="stroke:#181818;stroke-width:1.0;"/></g><!--link fa12a46f06c0cdbd48a8a941d766dd5e to 2425775a6ce140bd85a74ac550106d12--><g id="link_fa12a46f06c0cdbd48a8a941d766dd5e_2425775a6ce140bd85a74ac550106d12"><path codeLine="32" d="M901.76,445.51 C935.91,467.14 1059.99,545.72 1094.21,567.4 " fill="none" id="fa12a46f06c0cdbd48a8a941d766dd5e-2425775a6ce140bd85a74ac550106d12" style="stroke:#181818;stroke-width:1.0;"/></g><!--link 349a83bb472f89aafc32c286b36aadbc to 272301bb98fef5b1ae13268342c2f77f--><g id="link_349a83bb472f89aafc32c286b36aadbc_272301bb98fef5b1ae13268342c2f77f"><path codeLine="33" d="M902.45,306.89 C929.26,351.06 964.43,409.02 977.15,429.97 " fill="none" id="349a83bb472f89aafc32c286b36aadbc-272301bb98fef5b1ae13268342c2f77f" style="stroke:#181818;stroke-width:1.0;"/></g><!--link 272301bb98fef5b1ae13268342c2f77f to 777efe6cf8e5a13d2920e87273a7009e--><g id="link_272301bb98fef5b1ae13268342c2f77f_777efe6cf8e5a13d2920e87273a7009e"><path codeLine="34" d="M990.65,445.42 C1015.26,460.96 1087.82,506.79 1148,544.97 C1160.23,552.73 1174.36,561.72 1183.24,567.38 " fill="none" id="272301bb98fef5b1ae13268342c2f77f-777efe6cf8e5a13d2920e87273a7009e" style="stroke:#181818;stroke-width:1.0;"/></g><!--link 12846cb794da26bec6b148bfa9a5f4e2 to d86facd247b2c8bbe4ab96edd4449b10--><g id="link_12846cb794da26bec6b148bfa9a5f4e2_d86facd247b2c8bbe4ab96edd4449b10"><path codeLine="35" d="M830,703.57 C830,728.72 830,772.86 830,797.99 " fill="none" id="12846cb794da26bec6b148bfa9a5f4e2-d86facd247b2c8bbe4ab96edd4449b10" style="stroke:#181818;stroke-width:1.0;"/><text fill="#000000" font-family="sans-serif" font-size="13" lengthAdjust="spacing" textLength="14" x="831" y="764.3269">rw</text></g><!--link 349a83bb472f89aafc32c286b36aadbc to 12846cb794da26bec6b148bfa9a5f4e2--><g id="link_349a83bb472f89aafc32c286b36aadbc_12846cb794da26bec6b148bfa9a5f4e2"><path codeLine="36" d="M861.25,306.97 C857.18,337.32 852.36,375.67 849,409.97 C839.68,505.12 833.5722,613.4081 831.2622,657.7481 " fill="none" id="349a83bb472f89aafc32c286b36aadbc-to-12846cb794da26bec6b148bfa9a5f4e2" style="stroke:#181818;stroke-width:1.0;stroke-dasharray:7.0,7.0;"/><polygon fill="#181818" points="830.95,663.74,835.4128,654.9603,831.2101,658.7468,827.4237,654.5441,830.95,663.74" style="stroke:#181818;stroke-width:1.0;"/><text fill="#000000" font-family="sans-serif" font-size="13" lengthAdjust="spacing" textLength="23" x="842" y="511.0369">use</text></g><!--reverse link be9fa1c385ea8803a5ac106fe9e19ebd to 541661622185851c248b41bf0cea7ad0--><g id="link_be9fa1c385ea8803a5ac106fe9e19ebd_541661622185851c248b41bf0cea7ad0"><path codeLine="37" d="M943.1386,54.7616 C975.4086,64.6116 1003.56,79.27 1025,106.59 C1029.8763,112.805 1033.8402,119.6584 1037.0424,126.8991 C1038.6435,130.5194 1040.0542,134.2366 1041.2934,138.0191 C1041.9129,139.9104 1042.4896,141.818 1043.0257,143.7381 C1043.2938,144.6981 1043.5517,145.6612 1043.7998,146.627 " fill="none" id="be9fa1c385ea8803a5ac106fe9e19ebd-backto-541661622185851c248b41bf0cea7ad0" style="stroke:#181818;stroke-width:1.0;"/><polygon fill="#181818" points="937.4,53.01,944.8402,59.4632,942.1822,54.4697,947.1757,51.8117,937.4,53.01" style="stroke:#181818;stroke-width:1.0;"/></g><!--SRC=[ZPDVRzem5CNVyoaYdhP80TlnNzGYCSgsgcf1GFUoJUZQlkuGa5GXb4xJllj2sbMZUqWV4zrp_FCvrx3P58Vjwd6LtqLvuJ7k98ajYpMMZscErQ4erqdoBJyxU_uO33enx6AB9W1rcHO8MfCC13XAP423rA3rprxNKBaVjNMwm_9XvR3HAg82pv19CCGOnGJNI3Ynb5g1LAduLnIxOdjVv9XNiJEQ6qKzrTwgJ6idFGPh2CcyiQX5_3LAakshSv8aYahSLL1M_HWs1_YvYp1_M9L5lgrD-_5yEhky-RIy6dwy6Yu_J2QB-M8sd2xduzcNyMn-leQmXdwDnqvbJ_EBoVHoj9pCBiQpvN0q6ayNuulpelHOTi4vlA_GjyckXulHvnTLW_zQT88ucjpCRwzhuQVPv7QwlBmuVttbzAuizlTHz3tw_Hp-rV4IJUA2KocfP8ngeGLrZ6lBgGt48IZmv3JnZ1lGcRLSiQ0DG70PSqnBcqa0RrsJU9FGCURL5kwmNylpiDdNybNkUku-VKfGTscN_DT4pVZkVTmvnjlWrPl4WCj0f2FEMyyrQ32SUYMbzmB_JcVDD5Ci8zHQemC6OIaWpPZK6QyXWr8XgezQ1N1LtEazGDdRh6oleUbvg9xoe4npwQmot0EJ5fsqj8uaW04HEB8wmXD0nfbGIe1qIEj5zLg0uk248FNEUyfE0PLI652we540pJmpZA1MJ6MW237u3s33jNpXybhM_ptZoZAdhKKEraZqddDkB2LHwzD9z-cW_N6sDfpwjBsLje76fJMwDx6qTjusqBYq5jEs5urBMqbnF-wKXqxxnRfTt-qEMfVnwBVVOITgVSLlAlyF]--></g></svg>