<svg xmlns="http://www.w3.org/2000/svg" xmlns:xlink="http://www.w3.org/1999/xlink" contentStyleType="text/css" height="729px" preserveAspectRatio="none" style="width:1366px;height:729px;background:#FFFFFF;" version="1.1" viewBox="0 0 1366 729" width="1366px" zoomAndPan="magnify"><defs/><g><!--cluster 707f43e26a909972548e040b11b5e177--><g id="cluster_707f43e26a909972548e040b11b5e177"><polygon fill="none" points="16,132.59,26,122.59,665,122.59,665,344.97,655,354.97,16,354.97,16,132.59" style="stroke:#181818;stroke-width:1.0;"/><line style="stroke:#181818;stroke-width:1.0;" x1="655" x2="665" y1="132.59" y2="122.59"/><line style="stroke:#181818;stroke-width:1.0;" x1="16" x2="655" y1="132.59" y2="132.59"/><line style="stroke:#181818;stroke-width:1.0;" x1="655" x2="655" y1="132.59" y2="354.97"/><text fill="#000000" font-family="sans-serif" font-size="14" font-weight="bold" lengthAdjust="spacing" textLength="135" x="269" y="148.5851">Matching-service</text></g><!--cluster 541661622185851c248b41bf0cea7ad0--><g id="cluster_541661622185851c248b41bf0cea7ad0"><polygon fill="none" points="705,157.04,715,147.04,1052,147.04,1052,603.26,1042,613.26,705,613.26,705,157.04" style="stroke:#181818;stroke-width:1.0;"/><line style="stroke:#181818;stroke-width:1.0;" x1="1042" x2="1052" y1="157.04" y2="147.04"/><line style="stroke:#181818;stroke-width:1.0;" x1="705" x2="1042" y1="157.04" y2="157.04"/><line style="stroke:#181818;stroke-width:1.0;" x1="1042" x2="1042" y1="157.04" y2="613.26"/><text fill="#000000" font-family="sans-serif" font-size="14" font-weight="bold" lengthAdjust="spacing" textLength="44" x="852.5" y="173.0351">Kafka</text></g><!--cluster bdfb05e4e952da17bee8f093999780d9--><g id="cluster_bdfb05e4e952da17bee8f093999780d9"><polygon fill="none" points="1092,157.04,1102,147.04,1349,147.04,1349,603.26,1339,613.26,1092,613.26,1092,157.04" style="stroke:#181818;stroke-width:1.0;"/><line style="stroke:#181818;stroke-width:1.0;" x1="1339" x2="1349" y1="157.04" y2="147.04"/><line style="stroke:#181818;stroke-width:1.0;" x1="1092" x2="1339" y1="157.04" y2="157.04"/><line style="stroke:#181818;stroke-width:1.0;" x1="1339" x2="1339" y1="157.04" y2="613.26"/><text fill="#000000" font-family="sans-serif" font-size="14" font-weight="bold" lengthAdjust="spacing" textLength="148" x="1142.5" y="173.0351">Matching-postgres</text></g><!--entity c984971d18db7388c6defb9003d9be85--><g id="elem_c984971d18db7388c6defb9003d9be85"><rect fill="#F1F1F1" height="160.375" rx="2.5" ry="2.5" style="stroke:#181818;stroke-width:0.5;" width="582" x="40" y="170.59"/><rect fill="#F1F1F1" height="10" style="stroke:#181818;stroke-width:0.5;" width="15" x="602" y="175.59"/><rect fill="#F1F1F1" height="2" style="stroke:#181818;stroke-width:0.5;" width="4" x="600" y="177.59"/><rect fill="#F1F1F1" height="2" style="stroke:#181818;stroke-width:0.5;" width="4" x="600" y="181.59"/><text fill="#000000" font-family="sans-serif" font-size="14" font-weight="bold" lengthAdjust="spacing" textLength="136" x="55" y="203.5851">matching-service</text><text fill="#000000" font-family="sans-serif" font-size="14" lengthAdjust="spacing" textLength="4" x="55" y="219.882">&#160;</text><text fill="#000000" font-family="sans-serif" font-size="14" lengthAdjust="spacing" textLength="99" x="55" y="236.1789">restart: always</text><text fill="#000000" font-family="sans-serif" font-size="14" lengthAdjust="spacing" textLength="454" x="55" y="252.4757">environment: SPRING_KAFKA_BOOTSTRAP_SERVERS=kafka:9092</text><text fill="#000000" font-family="sans-serif" font-size="14" lengthAdjust="spacing" textLength="448" x="55" y="268.7726">environment: KAFKA_TOPIC_ORDER_ACCEPTED=order.accepted</text><text fill="#000000" font-family="sans-serif" font-size="14" lengthAdjust="spacing" textLength="438" x="55" y="285.0695">environment: KAFKA_TOPIC_ORDER_MATCHED=order.matched</text><text fill="#000000" font-family="sans-serif" font-size="14" lengthAdjust="spacing" textLength="542" x="55" y="301.3664">environment: SPRING_KAFKA_CONSUMER_GROUP_ID=matching-service-group</text><text fill="#000000" font-family="sans-serif" font-size="14" lengthAdjust="spacing" textLength="4" x="55" y="317.6632">&#160;</text></g><!--entity 349a83bb472f89aafc32c286b36aadbc--><g id="elem_349a83bb472f89aafc32c286b36aadbc"><rect fill="#F1F1F1" height="111.4844" rx="2.5" ry="2.5" style="stroke:#181818;stroke-width:0.5;" width="279" x="729.5" y="195.04"/><rect fill="#F1F1F1" height="10" style="stroke:#181818;stroke-width:0.5;" width="15" x="988.5" y="200.04"/><rect fill="#F1F1F1" height="2" style="stroke:#181818;stroke-width:0.5;" width="4" x="986.5" y="202.04"/><rect fill="#F1F1F1" height="2" style="stroke:#181818;stroke-width:0.5;" width="4" x="986.5" y="206.04"/><text fill="#000000" font-family="sans-serif" font-size="14" font-weight="bold" lengthAdjust="spacing" textLength="42" x="744.5" y="228.0351">kafka</text><text fill="#000000" font-family="sans-serif" font-size="14" lengthAdjust="spacing" textLength="4" x="744.5" y="244.332">&#160;</text><text fill="#000000" font-family="sans-serif" font-size="14" lengthAdjust="spacing" textLength="239" x="744.5" y="260.6289">image: confluentinc/cp-kafka:8.1.0</text><text fill="#000000" font-family="sans-serif" font-size="14" lengthAdjust="spacing" textLength="99" x="744.5" y="276.9257">restart: always</text><text fill="#000000" font-family="sans-serif" font-size="14" lengthAdjust="spacing" textLength="4" x="744.5" y="293.2226">&#160;</text></g><!--entity 12846cb794da26bec6b148bfa9a5f4e2--><g id="elem_12846cb794da26bec6b148bfa9a5f4e2"><rect fill="#F1F1F1" height="39.2969" rx="2.5" ry="2.5" style="stroke:#181818;stroke-width:0.5;" width="151" x="793.5" y="549.97"/><polygon fill="#F1F1F1" points="927.5,554.97,927.5,568.97,939.5,568.97,939.5,560.97,933.5,554.97,927.5,554.97" style="stroke:#181818;stroke-width:0.5;"/><line style="stroke:#181818;stroke-width:0.5;" x1="933.5" x2="933.5" y1="554.97" y2="560.97"/><line style="stroke:#181818;stroke-width:0.5;" x1="939.5" x2="933.5" y1="560.97" y2="560.97"/><text fill="#000000" font-family="sans-serif" font-size="14" lengthAdjust="spacing" textLength="121" x="803.5" y="575.9651">/var/lib/kafka/data</text></g><!--entity fd131135c7950342340ce78449fafdb1--><g id="elem_fd131135c7950342340ce78449fafdb1"><rect fill="#F1F1F1" height="111.4844" rx="2.5" ry="2.5" style="stroke:#181818;stroke-width:0.5;" width="189" x="1116.5" y="195.04"/><rect fill="#F1F1F1" height="10" style="stroke:#181818;stroke-width:0.5;" width="15" x="1285.5" y="200.04"/><rect fill="#F1F1F1" height="2" style="stroke:#181818;stroke-width:0.5;" width="4" x="1283.5" y="202.04"/><rect fill="#F1F1F1" height="2" style="stroke:#181818;stroke-width:0.5;" width="4" x="1283.5" y="206.04"/><text fill="#000000" font-family="sans-serif" font-size="14" font-weight="bold" lengthAdjust="spacing" textLength="149" x="1131.5" y="228.0351">matching-postgres</text><text fill="#000000" font-family="sans-serif" font-size="14" lengthAdjust="spacing" textLength="4" x="1131.5" y="244.332">&#160;</text><text fill="#000000" font-family="sans-serif" font-size="14" lengthAdjust="spacing" textLength="136" x="1131.5" y="260.6289">image: postgres:17</text><text fill="#000000" font-family="sans-serif" font-size="14" lengthAdjust="spacing" textLength="99" x="1131.5" y="276.9257">restart: always</text><text fill="#000000" font-family="sans-serif" font-size="14" lengthAdjust="spacing" textLength="4" x="1131.5" y="293.2226">&#160;</text></g><!--entity 53b097bed718973e2e14b390e359ac8f--><g id="elem_53b097bed718973e2e14b390e359ac8f"><rect fill="#F1F1F1" height="39.2969" rx="2.5" ry="2.5" style="stroke:#181818;stroke-width:0.5;" width="189" x="1116.5" y="549.97"/><polygon fill="#F1F1F1" points="1288.5,554.97,1288.5,568.97,1300.5,568.97,1300.5,560.97,1294.5,554.97,1288.5,554.97" style="stroke:#181818;stroke-width:0.5;"/><line style="stroke:#181818;stroke-width:0.5;" x1="1294.5" x2="1294.5" y1="554.97" y2="560.97"/><line style="stroke:#181818;stroke-width:0.5;" x1="1300.5" x2="1294.5" y1="560.97" y2="560.97"/><text fill="#000000" font-family="sans-serif" font-size="14" lengthAdjust="spacing" textLength="159" x="1126.5" y="575.9651">/var/lib/postgresql/data</text></g><!--entity be9fa1c385ea8803a5ac106fe9e19ebd--><g id="elem_be9fa1c385ea8803a5ac106fe9e19ebd"><polygon fill="#F1F1F1" points="957,16,967,6,1131,6,1131,58.5938,1121,68.5938,957,68.5938,957,16" style="stroke:#181818;stroke-width:0.5;"/><line style="stroke:#181818;stroke-width:0.5;" x1="1121" x2="1131" y1="16" y2="6"/><line style="stroke:#181818;stroke-width:0.5;" x1="957" x2="1121" y1="16" y2="16"/><line style="stroke:#181818;stroke-width:0.5;" x1="1121" x2="1121" y1="16" y2="68.5938"/><text fill="#000000" font-family="sans-serif" font-size="14" font-weight="bold" lengthAdjust="spacing" textLength="134" x="972" y="38.9951">brokerx-network</text><text fill="#000000" font-family="sans-serif" font-size="14" lengthAdjust="spacing" textLength="74" x="972" y="55.292">&#171;network&#187;</text></g><!--entity d86facd247b2c8bbe4ab96edd4449b10--><g id="elem_d86facd247b2c8bbe4ab96edd4449b10"><rect fill="#F1F1F1" height="39.2969" rx="2.5" ry="2.5" style="stroke:#181818;stroke-width:0.5;" width="103" x="817.5" y="684.26"/><polygon fill="#F1F1F1" points="903.5,689.26,903.5,703.26,915.5,703.26,915.5,695.26,909.5,689.26,903.5,689.26" style="stroke:#181818;stroke-width:0.5;"/><line style="stroke:#181818;stroke-width:0.5;" x1="909.5" x2="909.5" y1="689.26" y2="695.26"/><line style="stroke:#181818;stroke-width:0.5;" x1="915.5" x2="909.5" y1="695.26" y2="695.26"/><text fill="#000000" font-family="sans-serif" font-size="14" lengthAdjust="spacing" textLength="73" x="827.5" y="710.2551">kafka_data</text></g><!--entity e924a705082948a3ae127915babb7b8d--><g id="elem_e924a705082948a3ae127915babb7b8d"><rect fill="#F1F1F1" height="39.2969" rx="2.5" ry="2.5" style="stroke:#181818;stroke-width:0.5;" width="200" x="1111" y="684.26"/><polygon fill="#F1F1F1" points="1294,689.26,1294,703.26,1306,703.26,1306,695.26,1300,689.26,1294,689.26" style="stroke:#181818;stroke-width:0.5;"/><line style="stroke:#181818;stroke-width:0.5;" x1="1300" x2="1300" y1="689.26" y2="695.26"/><line style="stroke:#181818;stroke-width:0.5;" x1="1306" x2="1300" y1="695.26" y2="695.26"/><text fill="#000000" font-family="sans-serif" font-size="14" lengthAdjust="spacing" textLength="170" x="1121" y="710.2551">matching_postgres_data</text></g><!--reverse link be9fa1c385ea8803a5ac106fe9e19ebd to 707f43e26a909972548e040b11b5e177--><g id="link_be9fa1c385ea8803a5ac106fe9e19ebd_707f43e26a909972548e040b11b5e177"><path codeLine="37" d="M950.8309,47.5491 C865.5109,57.5591 749.22,76.04 713,106.59 C687.29,128.275 673.3225,163.3 665.7663,193.2812 C665.5301,194.2182 665.3002,195.1502 665.0765,196.0767 " fill="none" id="be9fa1c385ea8803a5ac106fe9e19ebd-backto-707f43e26a909972548e040b11b5e177" style="stroke:#181818;stroke-width:1.0;"/><polygon fill="#181818" points="956.79,46.85,947.3852,43.926,951.8241,47.4326,948.3174,51.8715,956.79,46.85" style="stroke:#181818;stroke-width:1.0;"/></g><!--link 12846cb794da26bec6b148bfa9a5f4e2 to d86facd247b2c8bbe4ab96edd4449b10--><g id="link_12846cb794da26bec6b148bfa9a5f4e2_d86facd247b2c8bbe4ab96edd4449b10"><path codeLine="38" d="M869,589.57 C869,614.72 869,658.86 869,683.99 " fill="none" id="12846cb794da26bec6b148bfa9a5f4e2-d86facd247b2c8bbe4ab96edd4449b10" style="stroke:#181818;stroke-width:1.0;"/><text fill="#000000" font-family="sans-serif" font-size="13" lengthAdjust="spacing" textLength="14" x="870" y="650.3269">rw</text></g><!--link 349a83bb472f89aafc32c286b36aadbc to 12846cb794da26bec6b148bfa9a5f4e2--><g id="link_349a83bb472f89aafc32c286b36aadbc_12846cb794da26bec6b148bfa9a5f4e2"><path codeLine="39" d="M869,306.97 C869,379.3 869,496.5 869,543.57 " fill="none" id="349a83bb472f89aafc32c286b36aadbc-to-12846cb794da26bec6b148bfa9a5f4e2" style="stroke:#181818;stroke-width:1.0;stroke-dasharray:7.0,7.0;"/><polygon fill="#181818" points="869,549.57,873,540.57,869,544.57,865,540.57,869,549.57" style="stroke:#181818;stroke-width:1.0;"/><text fill="#000000" font-family="sans-serif" font-size="13" lengthAdjust="spacing" textLength="23" x="870" y="454.0369">use</text></g><!--reverse link be9fa1c385ea8803a5ac106fe9e19ebd to 541661622185851c248b41bf0cea7ad0--><g id="link_be9fa1c385ea8803a5ac106fe9e19ebd_541661622185851c248b41bf0cea7ad0"><path codeLine="40" d="M1044,75.05 C1044,89.4825 1044,101.7569 1044,121.1081 C1044,125.9459 1044,130.8511 1044,135.7803 C1044,138.2449 1044,140.7155 1044,143.1868 C1044,144.4224 1044,145.6582 1044,146.8935 " fill="none" id="be9fa1c385ea8803a5ac106fe9e19ebd-backto-541661622185851c248b41bf0cea7ad0" style="stroke:#181818;stroke-width:1.0;"/><polygon fill="#181818" points="1044,69.05,1040,78.05,1044,74.05,1048,78.05,1044,69.05" style="stroke:#181818;stroke-width:1.0;"/></g><!--link 53b097bed718973e2e14b390e359ac8f to e924a705082948a3ae127915babb7b8d--><g id="link_53b097bed718973e2e14b390e359ac8f_e924a705082948a3ae127915babb7b8d"><path codeLine="41" d="M1211,589.57 C1211,614.72 1211,658.86 1211,683.99 " fill="none" id="53b097bed718973e2e14b390e359ac8f-e924a705082948a3ae127915babb7b8d" style="stroke:#181818;stroke-width:1.0;"/><text fill="#000000" font-family="sans-serif" font-size="13" lengthAdjust="spacing" textLength="14" x="1212" y="650.3269">rw</text></g><!--link fd131135c7950342340ce78449fafdb1 to 53b097bed718973e2e14b390e359ac8f--><g id="link_fd131135c7950342340ce78449fafdb1_53b097bed718973e2e14b390e359ac8f"><path codeLine="42" d="M1211,306.97 C1211,379.3 1211,496.5 1211,543.57 " fill="none" id="fd131135c7950342340ce78449fafdb1-to-53b097bed718973e2e14b390e359ac8f" style="stroke:#181818;stroke-width:1.0;stroke-dasharray:7.0,7.0;"/><polygon fill="#181818" points="1211,549.57,1215,540.57,1211,544.57,1207,540.57,1211,549.57" style="stroke:#181818;stroke-width:1.0;"/><text fill="#000000" font-family="sans-serif" font-size="13" lengthAdjust="spacing" textLength="23" x="1212" y="454.0369">use</text></g><!--reverse link be9fa1c385ea8803a5ac106fe9e19ebd to bdfb05e4e952da17bee8f093999780d9--><g id="link_be9fa1c385ea8803a5ac106fe9e19ebd_bdfb05e4e952da17bee8f093999780d9"><path codeLine="43" d="M1137.1053,49.7989 C1208.8253,60.4189 1296.7,78.38 1322,106.59 C1327.2725,112.4712 1331.5352,119.0731 1334.9567,126.1292 C1336.6674,129.6573 1338.1679,133.2989 1339.4791,137.0208 C1340.1348,138.8817 1340.7431,140.7627 1341.3068,142.6596 C1341.5886,143.6081 1341.8593,144.5605 1342.1191,145.5164 C1342.249,145.9943 1342.3762,146.4732 1342.5008,146.9528 " fill="none" id="be9fa1c385ea8803a5ac106fe9e19ebd-backto-bdfb05e4e952da17bee8f093999780d9" style="stroke:#181818;stroke-width:1.0;"/><polygon fill="#181818" points="1131.17,48.92,1139.487,54.1952,1136.1161,49.6524,1140.6588,46.2815,1131.17,48.92" style="stroke:#181818;stroke-width:1.0;"/></g><!--SRC=[ZPHFRnen4CNl-obM7940_rtRA8b42KsZA041wQMjqDWUfoYmIvSbfAhwtUj0I49ws1njxPkPt_ERXSMYs2xdZ_FyBiaBZscZsRHbSO_bOol7QbkKzytcz_pavFbmTjP8OPrQD06eureYQ4quI72KP04DKeFMFzUwXihzZALRQomVvWvtMaLK41nP1eOOevWK6eaWbb8haIgL_abILonNHOvvbJgZXL7KK-sjubgxp6EmXX3kZKKjqsz9ixbyrwVPJ98IrnMKLJU5nHP-hnFC7-PbaIzZqMuw6OqlRovcLxtFLxtPf-5mEfcEUwFPP33-EXXFJkyXt4CtZiUEPVllfyFHPNys79yFnhDUlpyOJGVdfqNfiMo3SxYgqDV9hdlJ_fSNrMxyzwAZ4Vl3cydjTHHUZ8Utezdb-UbxvDPTMMnMIV8Z-Vji_jKJnCvnAMYMqOmnggMMr36XhQ0s48UWm9DZnxameBcrGh6W3K1md3ccCyip06_Tpl6TGqyspvTmXzqepyDY4-Npt7NSghLtKBTfc_pt4d76U9m7S5NQw3n0sLdCRMUdw7YezZDJfaNch3B20yiikipIE7O00p88P2-OBnbR5UlgBlRQ1zG7IoGAD99veCeYwa0CDp5ncdXpZ1myvPHowPIHX0l6HRH6QI5YoeEtz3XaXqPly0zNNQe-Y7jG_5gyCajkYOcZUaMrKN55a0hB3K4k3JWT8lDhfPrVinUjrrcyzqmeovos5WLOaw7t8b9OIjue3o2pmmolLT0m0Of8efaH6ZWWPSfGQS5QPRLFQfUtjMcTrVyUwbutRVbMBLBQJHlbjf7K1hRTzktsMMsadkfjrjX8QlVbOv1rpxc3h7Fy05aRqMV8sgO7oDeD-H3aFm00]--></g></svg>